<svg width="169" height="176" viewBox="0 0 169 176" fill="none" xmlns="http://www.w3.org/2000/svg">
<path d="M2.76668 168.701C1.90225 170.595 -7.3991e-06 169.272 -7.30809e-06 167.19L-6.72185e-06 153.778C-6.62623e-06 151.59 0.597753 149.444 1.7314 147.573C6.20218 140.194 10.5165 133.134 14.7221 126.005C16.4347 123.099 18.1425 120.165 19.3833 116.93C19.9272 115.512 19.5342 113.967 18.447 112.907C16.5329 111.04 13.3466 111.441 12.0288 113.767C10.637 116.225 9.25828 118.629 7.75954 120.951C5.77448 124.027 4.05401 127.332 1.56208 130.37C1.01927 131.031 -5.70999e-06 130.629 -5.67259e-06 129.774C-5.6636e-06 129.568 0.0667345 129.368 0.189325 129.203C4.7309 123.085 8.47835 116.683 11.9985 110.141C12.6839 108.868 12.5117 107.305 11.5744 106.203C11.5479 106.172 11.5214 106.141 11.4949 106.11C9.93912 104.281 7.04299 104.566 5.84101 106.644C4.4828 108.993 3.07431 111.33 1.50654 113.706C1.05185 114.395 -4.98609e-06 114.068 -4.95001e-06 113.243C-4.94344e-06 113.093 0.0402794 112.945 0.116403 112.815C1.25745 110.873 2.35511 109.005 3.44712 107.146C5.65881 103.38 5.2517 98.6286 2.43208 95.294C2.15995 94.9721 1.88765 94.6501 1.61469 94.3273C0.572167 93.0944 -4.001e-06 91.5321 -3.93042e-06 89.9175C-3.87864e-06 88.7329 0.313613 87.5778 0.846628 86.5199C4.23914 79.7866 9.1511 66.2002 9.1511 63.1725C9.1511 63.1132 9.09518 63.0684 9.03684 63.0788C8.24605 63.2207 7.46897 63.3603 6.74666 63.4899C6.09345 63.6072 5.53464 64.0332 5.27235 64.6429C3.89227 67.8505 2.98591 71.162 1.43145 74.3683C1.05652 75.1416 -3.27207e-06 74.8563 -3.23451e-06 73.9969L-3.20135e-06 73.2383C-3.19951e-06 73.1962 0.0334613 73.1618 0.0755176 73.1605C0.10672 73.1595 0.134252 73.1399 0.145438 73.1107C0.994232 70.8991 1.8418 68.6871 2.70238 66.4415C3.05307 65.5264 2.37742 64.5439 1.39741 64.5439C1.27906 64.5439 1.16106 64.5439 1.04334 64.5439C0.467116 64.5439 -2.80088e-06 64.0767 -2.7757e-06 63.5005C-2.75332e-06 62.9885 0.371692 62.552 0.877359 62.4717C4.92555 61.8291 8.47594 61.3346 11.9812 60.6029C17.503 59.4504 22.9776 58.1715 27.8505 54.9143C34.3054 50.6002 41.0094 46.6495 45.6614 40.0306C47.3233 37.669 49.1098 35.3896 50.6048 32.9193C52.4124 29.9279 54.4128 26.9386 55.5506 23.6575C58.0865 16.3512 59.4313 8.72964 60.093 0.994121C60.141 0.433201 60.6087 2.64929e-06 61.1717 2.6739e-06C61.7672 2.69993e-06 62.2499 0.482743 62.2499 1.07823C62.2499 1.18013 62.2499 1.28201 62.2499 1.38392C62.2499 2.3877 63.29 3.06818 64.2245 2.70163C66.1665 1.93984 68.0759 1.26728 69.9428 0.159809C70.1163 0.0568724 70.3137 3.07351e-06 70.5155 3.08233e-06C71.5945 3.1295e-06 71.9562 1.30923 70.9855 1.78047C68.3104 3.07911 65.6077 3.9627 63.0117 5.11764C62.0062 5.565 61.2832 6.48036 61.0565 7.55727C60.9983 7.83382 60.9441 8.11409 60.8983 8.3958C60.8842 8.47396 60.8795 8.55337 60.8795 8.63573C60.8795 9.25132 61.5092 9.68134 62.1047 9.52526C66.796 8.29559 77.5579 3.78443 82.6174 1.04689C83.8054 0.404086 85.1185 3.72065e-06 86.4693 3.77969e-06C88.1734 3.85418e-06 89.8164 0.635682 91.0766 1.78291C91.3723 2.05214 91.6668 2.32023 91.9602 2.58739C95.0003 5.35528 99.4773 6.03512 102.957 3.84599C104.707 2.74516 106.417 1.54805 108.117 0.211243C108.29 0.0750308 108.504 4.74285e-06 108.724 4.75248e-06C109.678 4.79416e-06 110.061 1.22495 109.273 1.76277C107.055 3.2773 104.872 4.72212 102.651 6.10976C100.669 7.34869 100.364 10.1501 102.088 11.7294C102.122 11.7608 102.157 11.7922 102.191 11.8236C103.342 12.8784 105.047 13.0623 106.392 12.2701C112.666 8.57654 118.694 4.83706 124.371 0.221785C124.547 0.0788278 124.767 5.45374e-06 124.994 5.46365e-06C125.855 5.5013e-06 126.353 1.09718 125.656 1.6027C125.622 1.62735 125.588 1.65135 125.553 1.6747C119.928 5.46515 114.27 9.20728 108.621 12.9653C108.602 12.9779 108.583 12.9905 108.564 13.0031C106.825 14.1604 106.532 16.6018 107.942 18.144C109.539 19.882 112.086 20.3916 114.184 19.3104C123.754 14.3793 132.494 8.20421 141.502 2.05926C143.477 0.712277 145.814 6.37372e-06 148.204 6.4782e-06L160.973 7.03637e-06C163.04 7.12671e-06 164.392 1.88745 162.55 2.82466C160.385 3.92725 158.218 3.23806 156.396 2.19401C153.747 0.677549 150.952 0.816241 148.164 0.662297C147.367 0.618354 146.443 0.976954 145.743 1.42801C145.681 1.4675 145.62 1.50705 145.559 1.54666C141.885 3.92414 141.748 9.75121 145.691 11.6495C147.971 12.7463 150.197 11.7037 152.118 10.0204C153.291 8.99298 154.567 7.99344 155.956 7.35518C157.844 6.48795 159.562 7.27472 160.098 8.90042C160.199 9.20689 160.249 9.51133 160.249 9.8094C160.249 10.9753 159.485 12.0394 158.015 12.7039C157.244 13.0539 156.346 13.1379 155.493 13.2538C155.021 13.3179 154.525 13.1753 154.04 13.1651C150.891 13.0981 149.304 14.1578 149.304 16.3005C149.304 17.1134 149.532 18.0825 149.99 19.2045C150.688 20.9085 151.375 21.4482 153.164 20.9895C155.535 20.3811 158.124 20.5362 160.051 18.2344C160.824 17.3079 162.71 17.1919 164.115 17.0825C165.298 16.9905 166.428 17.603 166.668 19.0717C166.703 19.2923 166.722 19.5042 166.722 19.7078C166.722 20.8587 166.156 21.7379 165.077 22.3309C163.624 23.1284 162.068 23.4508 160.582 22.6745C157.853 21.2495 155.474 22.7346 153.093 23.591C152.057 23.9637 151.871 24.7658 151.871 25.6536C151.871 25.9047 151.885 26.1626 151.899 26.4198C151.915 26.6765 151.93 26.9325 151.93 27.1797C151.93 27.3254 151.925 27.4681 151.911 27.6062C151.901 27.716 151.894 27.8227 151.894 27.9261C151.894 29.0696 152.536 29.8198 153.563 30.1316C156.532 31.0321 159.43 32.1575 162.691 31.1172C164.057 30.6809 165.78 30.972 167.221 31.3842C168.478 31.7446 169 32.5345 169 33.6658C169 33.9911 168.955 34.3447 168.875 34.7244C168.565 36.1753 167.825 37.0021 166.276 37.0604C164.623 37.1229 163.152 36.7019 161.946 35.5914C159.426 33.2732 156.316 33.0735 153.213 32.7544C151.504 32.5784 150.862 33.6531 150.27 35.0767C149.95 35.8491 149.673 36.628 149.673 37.3456C149.673 38.0299 149.924 38.6585 150.632 39.1717C152.628 40.6214 154.259 42.8515 157.223 42.505C158.876 42.312 160.143 43.5126 161.069 44.8859C161.421 45.4103 161.598 45.987 161.598 46.5436C161.598 47.1766 161.37 47.7837 160.923 48.2586C160.359 48.8576 159.163 49.2154 158.344 49.0743C156.436 48.7449 154.96 47.5241 154.238 45.5997C153.166 42.738 150.5 41.9108 148.279 40.6251C147.021 39.8964 145.322 41.2807 144.281 43.3793C143.928 44.0875 143.735 44.6924 143.735 45.2359C143.735 45.9513 144.069 46.5602 144.814 47.1568C145.787 47.9386 147.078 48.2837 148.138 48.9713C149.259 49.6985 150.444 50.4489 151.293 51.4657C151.756 52.0202 151.965 52.5836 151.965 53.1339C151.965 53.7903 151.666 54.4282 151.144 55.0094C150.197 56.0597 148.613 56.3325 147.489 55.2386C146.314 54.0934 145.47 52.5826 144.476 51.2376C143.601 50.0582 142.88 48.6775 141.791 47.7803C140.957 47.0943 139.617 46.6478 138.566 46.7549C134.479 47.172 132.097 52.3328 134.69 55.5198C135.039 55.9485 135.406 56.3573 135.797 56.7398C137.903 58.7988 140.99 59.793 144.104 59.8701C145.635 59.9079 147.2 59.782 148.69 60.0607C150.526 60.4038 151.998 61.6188 152.32 63.5622C152.336 63.67 152.346 63.7854 152.346 63.906C152.346 64.7964 151.885 65.9702 151.278 66.4511C149.788 67.6354 147.959 67.5107 146.33 66.5041C145.334 65.8882 144.198 65.2498 143.575 64.3018C141.848 61.6722 139.142 60.7576 136.566 59.6285C135.748 59.2705 134.697 59.2422 133.797 59.3811C131.776 59.6934 129.765 60.0735 127.568 60.4921C126.2 60.7528 125.782 62.334 126.62 63.446C127.516 64.6322 128.357 65.8716 129.135 67.1451C130.891 70.0217 133.23 70.9062 136.373 69.8687C137.663 69.4431 138.968 69.0056 140.299 68.8052C141.119 68.6815 142.069 68.8247 142.84 69.1539C143.721 69.53 144.492 70.2537 144.492 71.2432C144.492 71.4019 144.473 71.5671 144.431 71.7391C144.215 72.6147 143.655 73.6147 142.952 74.0993C141.669 74.987 140.167 74.8106 138.754 74.1583C137.776 73.7064 136.831 73.1278 135.811 72.8343C133.352 72.1269 131.815 73.2452 131.474 75.8453C131.399 76.4165 131.359 76.9133 131.359 77.3482C131.359 79.3919 132.264 80.0605 134.836 80.5768C137.036 81.0193 139.055 81.4077 141.345 80.3877C142.471 79.8863 144.299 80.8018 145.705 81.3616C146.481 81.671 146.85 82.4407 146.85 83.3038C146.85 83.5127 146.829 83.7272 146.786 83.9417C146.549 85.1345 145.865 85.9824 144.664 86.1413C142.884 86.377 141.114 86.3426 139.819 84.7628C137.847 82.3602 135.08 82.7889 132.558 82.6813C130.687 82.6015 130.666 84.6837 130.012 85.9514C129.81 86.3419 129.718 86.7196 129.718 87.0781C129.718 87.7989 130.087 88.4407 130.675 88.9456C133.07 91.0061 135.449 93.0237 138.761 93.4998C140.202 93.707 141.683 94.5566 142.863 95.4978C142.929 95.5481 142.93 95.6465 142.873 95.706L140.765 97.8934C139.73 98.967 137.975 99.2147 137.017 98.0729C136.79 97.8032 136.594 97.5183 136.441 97.216C134.85 94.0849 132.05 92.7167 129.335 91.172C127.732 90.2584 126.665 91.3643 125.534 92.4461C124.756 93.1899 124.255 94.002 124.255 94.8656C124.255 95.2929 124.378 95.7331 124.65 96.1835C125.953 98.3307 126.749 100.899 129.547 101.852C131.209 102.419 132.139 104.072 132.139 105.906C132.139 106.008 132.137 106.11 132.132 106.212C132.097 106.796 131.716 107.287 131.311 107.709L131.287 107.733C130.642 108.402 129.78 108.926 128.883 108.684C128.593 108.606 128.325 108.493 128.11 108.352C126.761 107.465 125.663 106.072 125.663 104.397C125.663 104.298 125.666 104.199 125.673 104.099C125.687 103.935 125.694 103.775 125.694 103.618C125.694 100.767 123.661 99.0344 122.384 96.9073C121.634 95.6564 120.431 95.6264 119.042 96.3058C116.95 97.3287 115.899 98.4539 115.899 99.7792C115.899 100.795 116.517 101.929 117.756 103.223C118.835 104.35 120.198 105.184 120.614 106.94C120.741 107.482 120.809 107.976 120.809 108.423C120.809 109.646 120.306 110.507 119.185 110.991C117.676 111.641 116.202 111.037 115.462 109.129C114.928 107.755 114.611 106.227 114.521 104.746C114.263 100.506 112.841 98.6899 108.936 97.9468C107.796 97.7297 106.64 97.5481 105.532 97.2009C104.06 96.7378 102.59 97.8165 102.884 99.3313C103.172 100.812 103.442 102.237 103.675 103.667C104.468 108.492 107.674 111.002 111.668 112.735C113.948 113.723 116.141 114.709 117.1 117.382C117.269 117.856 117.356 118.291 117.356 118.698C117.356 119.52 117.008 120.23 116.31 120.923C115.33 121.901 114.336 121.95 113.104 121.51C110.831 120.697 109.545 118.822 108.997 116.696C108.158 113.433 105.963 111.366 103.847 109.158C103.445 108.738 102.963 108.243 102.448 108.127C102.234 108.079 102.019 108.031 101.804 107.983C97.5613 107.046 93.4245 111 94.8182 115.116C95.6597 117.605 97.8599 118.573 100.375 118.83C101.997 118.996 103.668 119.242 105.18 119.833C106.539 120.366 107.204 121.368 107.204 122.485C107.204 122.879 107.121 123.288 106.957 123.695C106.318 125.275 104.942 125.839 103.064 125.094C102.192 124.748 101.421 124.101 100.652 123.52C100.269 123.229 100.008 122.768 99.6699 122.405C96.6164 119.135 94.4327 119.642 92.6932 123.827C92.4887 124.318 92.3947 124.761 92.3947 125.16C92.3947 126.045 92.8577 126.716 93.624 127.217C95.7866 128.63 97.606 130.674 100.629 130.519C101.818 130.458 103.184 131.785 104.27 132.727C104.797 133.183 105.128 133.809 105.128 134.495C105.128 134.784 104.977 135.046 104.776 135.254L103.764 136.305C103.228 136.861 102.522 137.308 101.767 137.148C99.9402 136.762 98.4946 135.758 97.8317 133.898C96.7927 130.976 94.1717 130.166 91.8422 129.118C90.1451 128.356 89.3365 130.207 88.2975 131.179C87.7568 131.686 87.5194 132.279 87.5194 132.886C87.5194 133.336 87.6487 133.794 87.8791 134.231C89.3647 137.053 90.6364 140.053 93.7345 141.547C94.8365 142.077 95.6888 142.92 96.2756 143.991C96.2939 144.025 96.2881 144.066 96.2615 144.094L92.1384 148.374C92.116 148.397 92.0793 148.398 92.0552 148.377C90.9433 147.393 90.2704 146.092 90.1451 144.596C89.8583 141.173 88.1964 138.522 86.0832 136.066C84.6939 134.451 84.299 134.346 82.2916 135.165C80.3194 135.97 79.5507 136.531 79.5507 137.878C79.5507 138.145 79.5813 138.444 79.6377 138.781C80.042 141.16 79.7387 143.798 82.0635 145.61C82.9403 146.293 83.2154 147.293 83.2154 148.346C83.2154 149.045 83.0931 149.768 82.945 150.437C82.4843 152.513 79.868 153.097 78.5799 151.425C77.743 150.336 77.2142 149.111 77.2142 147.822C77.2142 147.151 77.3552 146.463 77.6749 145.767C78.0862 144.865 78.2437 143.989 78.2437 143.13C78.2437 141.237 77.4751 139.431 76.9626 137.621C76.5959 136.324 74.5462 135.988 72.5152 136.526C71.0131 136.924 70.0846 137.762 70.0846 139.134C70.0846 139.236 70.0893 139.342 70.1011 139.451C70.2327 140.813 70.9074 142.109 71.2012 143.468C71.4504 144.617 71.7512 145.815 71.7512 146.972C71.7512 147.166 71.7418 147.36 71.723 147.552C71.5914 148.895 70.7052 149.957 69.1538 149.943C67.6682 149.93 66.8877 149.082 66.4787 147.654C66.3353 147.149 66.2766 146.657 66.2766 146.173C66.2766 144.872 66.702 143.632 67.0241 142.359C67.3414 141.11 67.6352 139.814 67.6517 138.535C67.6517 138.514 67.6517 138.493 67.6517 138.472C67.6517 136.795 66.7984 135.471 65.4609 134.483C65.3088 134.37 65.1569 134.258 65.0049 134.145C62.1683 132.04 58.1511 133.589 57.4123 137.043C57.243 137.843 57.1631 138.61 57.1631 139.348C57.1631 142.772 58.8744 145.572 61.1098 148.195C62.0713 149.323 63.0914 150.407 63.9588 151.61C64.5559 152.442 64.8215 153.371 64.8215 154.336C64.8215 154.867 64.7416 155.409 64.5935 155.951C64.0505 157.934 62.2335 158.72 60.4517 157.798C58.9402 157.015 58.054 155.687 57.8401 154.011C57.7766 153.516 57.7602 153.014 57.7602 152.51C57.7602 152.276 57.7649 152.041 57.7672 151.806C57.7696 151.571 57.7743 151.336 57.7743 151.101C57.7743 150.58 57.7578 150.06 57.6873 149.548C57.1913 145.876 56.6601 142.183 53.3433 139.839C51.6432 138.636 49.962 137.403 48.1435 136.075C47.3375 135.486 46.1816 135.968 46.0586 136.958C45.8353 138.751 45.7436 140.571 45.3769 142.331C45.243 142.974 45.1771 143.583 45.1771 144.158C45.1771 146.517 46.3008 148.318 48.5903 149.59C50.0312 150.393 51.4863 151.261 52.7063 152.37C53.3409 152.948 53.7476 154.1 53.7899 155.016C53.7923 155.061 53.7946 155.106 53.7946 155.151C53.7946 157.115 51.7872 158.365 50.1347 157.281C48.9828 156.527 48.1107 155.217 47.3162 154.011C46.7262 153.114 46.5805 151.911 46.0304 150.975C44.8716 149.009 43.4682 148.717 41.5689 149.869C39.8999 150.88 39.1242 151.785 39.1242 152.953C39.1242 153.789 39.5238 154.76 40.2737 155.999C41.4302 157.904 42.6243 159.504 44.707 160.568C45.9035 161.179 46.7262 162.938 47.2927 164.363C47.3468 164.502 47.3726 164.671 47.3726 164.856C47.3726 165.577 46.9895 166.543 46.5311 167.009C45.6684 167.884 44.3568 167.943 43.2802 167.159C41.9356 166.177 40.9319 164.865 40.9319 163.128C40.9319 163.039 40.9342 162.948 40.9413 162.857C40.9483 162.73 40.9507 162.606 40.9507 162.484C40.9507 159.586 38.915 157.867 37.3236 155.952C36.0684 154.441 34.6345 155.8 33.3064 156.218C32.0981 156.598 31.588 157.446 31.588 158.619C31.588 158.745 31.5951 158.875 31.6068 159.008C31.8842 162.231 32.0934 165.461 34.3336 168.071C35.335 169.242 35.751 170.639 35.751 172.172C35.751 172.402 35.7416 172.635 35.7228 172.871C35.61 174.357 34.7308 174.967 33.4897 175.263C32.2392 175.563 31.1555 175.353 30.455 174.111C29.8885 173.101 29.6111 172.028 29.6111 170.952C29.6111 170.238 29.7334 169.522 29.9708 168.824C30.3069 167.834 30.4409 166.871 30.4409 165.926C30.4409 163.679 29.6817 161.533 29.0705 159.363C28.692 158.022 27.6836 157.538 26.339 157.636C24.9192 157.739 23.1397 157.219 22.6063 159.14C22.1243 160.875 21.358 162.573 21.358 164.402C21.358 165.228 21.5131 166.081 21.9245 166.977C22.089 167.332 22.1549 167.758 22.1549 168.214C22.1549 169.133 21.8869 170.178 21.6166 171.029C21.0853 172.688 19.8277 173.284 18.4103 172.974C16.8706 172.637 16.5016 171.396 16.4381 170.008C16.431 169.883 16.4287 169.758 16.4287 169.634C16.4287 167.987 16.9506 166.497 18.1164 165.329C20.3238 163.118 19.9499 160.171 20.2273 157.436C20.2297 157.421 20.2297 157.406 20.2297 157.39C20.2297 156.923 19.5527 156.253 19.0567 155.926C18.415 155.505 17.6228 155.297 16.873 155.09C14.788 154.516 13.166 155.53 12.8345 157.756C12.7946 158.02 12.7805 158.288 12.7805 158.558C12.7805 158.873 12.7993 159.191 12.8181 159.51C12.8369 159.828 12.8557 160.146 12.8557 160.46C12.8557 160.769 12.8392 161.074 12.7852 161.373C12.5431 162.71 12.1105 164.071 11.4665 165.249C10.8977 166.292 9.74104 166.553 8.61513 166.135C7.44688 165.701 6.83103 164.788 6.83103 163.549C6.83103 163.472 6.83331 163.393 6.83808 163.314C6.95792 161.292 8.08393 159.785 9.24045 158.251C10.1195 157.087 11.0269 155.793 11.3819 154.408C11.4782 154.037 11.5229 153.626 11.5229 153.202C11.5229 152.32 11.3254 151.388 10.9658 150.674C9.16311 147.086 3.97442 147.128 1.83518 150.527C1.58023 150.932 1.32567 151.338 1.07193 151.744C0.839157 152.118 0.667632 152.624 0.667632 153.069C0.667632 153.099 0.667632 153.13 0.669929 153.16C0.834474 156.157 0.575902 159.178 2.03808 162.032C2.71967 163.364 3.2886 164.806 3.2886 166.312C3.2886 167.094 3.13581 167.892 2.76668 168.701ZM31.7416 85.7459C32.0319 84.8235 31.7416 83.7996 31.0211 83.1546C29.721 81.9908 27.6757 82.5364 27.1019 84.1842C26.1574 86.8965 25.2508 89.5062 24.2822 92.0908C24.2415 92.1993 24.2007 92.3079 24.1598 92.4163C22.1368 97.7812 15.2851 99.181 11.4276 94.939C9.52173 92.8431 7.65104 90.7387 5.74967 88.6484C4.54481 87.3238 2.37181 87.7209 1.64996 89.3595C1.26717 90.2284 1.4257 91.2075 2.03151 91.9387C5.10148 95.6438 8.09242 99.4224 11.2748 103.048C16.2182 108.679 24.7645 106.998 27.2318 99.9229C28.8659 95.2368 30.2526 90.4774 31.7416 85.7459ZM26.2938 81.2882C26.7593 80.0202 26.3009 78.4516 25.4051 77.4406C24.2817 76.1726 22.6843 76.9495 22.0464 78.5189C21.4486 79.9894 20.8494 81.4637 20.2375 82.9691C18.8024 86.5003 14.2166 87.4016 11.5522 84.6758C10.5679 83.6689 9.60172 82.6805 8.63948 81.696C7.37336 80.4007 5.2201 80.761 4.52161 82.4322C4.14121 83.3424 4.30068 84.4469 4.96718 85.1741C6.07667 86.3847 7.18497 87.594 8.29621 88.8066C13.2585 94.2212 22.1944 92.4561 24.7253 85.5613C25.2505 84.1306 25.7728 82.7075 26.2938 81.2882ZM21.375 74.8102C21.5583 74.0247 21.2833 73.2053 20.7072 72.6407C19.4558 71.4142 17.4283 71.892 16.72 73.4946C16.6822 73.5801 16.644 73.6651 16.605 73.7498C16.5487 73.8726 16.4913 73.9949 16.4326 74.1171C15.6 75.8507 13.2796 76.2249 11.8568 74.931C11.7235 74.8098 11.5907 74.689 11.4582 74.5685C10.1372 73.3672 8.04866 73.7921 7.38734 75.4506C7.01904 76.3742 7.19391 77.4912 7.8756 78.2151C8.43067 78.8045 8.98677 79.395 9.54478 79.9875C12.7848 83.4276 18.8673 82.4105 20.4413 77.9547C20.8065 76.9208 21.1259 75.8779 21.375 74.8102ZM33.5673 129.23C33.5673 135.387 30.8899 138.679 25.5328 139.408C23.6928 139.659 21.7162 139.274 19.9895 138.047C17.1194 136.008 11.6857 134.913 9.74584 137.852C9.00068 138.982 8.65039 140.142 8.65039 141.32C8.65039 141.983 8.76084 142.652 8.97708 143.324C10.451 147.931 13.1778 151.478 17.597 153.411C18.8498 153.959 20.1051 154.522 21.398 154.948C24.8064 156.068 28.2007 156.32 31.6656 154.98C34.4723 153.896 36.6772 152.079 38.8633 150.016C41.905 147.145 43.6845 143.688 44.251 139.57C44.3474 138.865 44.4014 138.177 44.4014 137.51C44.4014 134.655 43.4094 132.193 40.5064 130.519C38.5624 129.398 36.8605 127.833 35.0247 126.504C34.361 126.023 33.4476 126.717 33.5053 127.534C33.5467 128.122 33.5673 128.687 33.5673 129.23ZM16.0978 70.1114C16.5228 68.9867 16.2832 67.7193 15.4763 66.828C13.8397 65.0203 10.8625 65.6305 10.0714 67.937C10.054 67.9878 10.0366 68.0386 10.0191 68.0894C9.62036 69.2522 9.90132 70.5192 10.7757 71.3833C12.4238 73.012 15.2233 72.4262 16.0422 70.2586C16.0608 70.2094 16.0793 70.1604 16.0978 70.1114ZM28.7743 62.3259C28.7743 62.3989 28.7743 62.4721 28.7743 62.5448C28.732 66.3631 24.6007 68.2547 22.0092 65.4502C20.8908 64.24 19.796 63.0302 18.6304 61.8659C18.1379 61.374 17.5585 61.1594 16.8908 61.3558C15.5584 61.7478 14.907 63.4086 15.7986 64.4735C17.5168 66.5253 19.2626 68.4924 21.0387 70.3947C25.2961 74.9545 32.8234 71.7895 32.8424 65.5512C32.843 65.3715 32.8433 65.1918 32.8433 65.0121C32.8433 63.7201 32.8285 62.4284 32.793 61.1364C32.7029 57.8488 28.7085 55.7213 28.7085 59.0102C28.7085 59.1715 28.7085 59.3413 28.7108 59.5202C28.7132 60.4553 28.7743 61.3909 28.7743 62.3259ZM32.0111 130.119C32.0111 129.212 31.8913 128.286 31.7032 127.336C31.0897 124.249 29.3735 122.199 27.3723 120.35C24.8444 118.015 20.6499 119.011 18.8734 121.959C17.691 123.922 17.2397 125.965 17.2397 128.077C17.2397 129.02 17.329 129.977 17.4842 130.945C18.0154 134.286 20.5165 137.485 23.1468 137.481C26.0993 137.476 29.2632 137.29 31.0427 134.057C31.7455 132.778 32.0111 131.47 32.0111 130.119ZM26.8703 62.0167C26.8703 60.205 25.1312 58.811 23.4705 59.535C21.8001 60.2632 21.5064 62.6973 22.8529 63.9251C24.4672 65.3972 26.8703 64.2014 26.8703 62.0167ZM60.9853 100.808C60.9853 100.693 60.9849 100.579 60.9842 100.465C60.9742 98.8178 59.9451 97.3389 58.4107 96.7392C57.9623 96.564 57.5163 96.3897 57.07 96.2153C55.4156 95.569 53.5702 96.5933 53.2681 98.3436C52.0481 105.487 50.8892 112.642 49.5846 119.768C49.1215 122.291 48.5057 122.565 46.4535 121.208C42.1871 118.388 37.9794 115.466 33.8212 112.475C32.7496 111.704 31.7051 110.892 30.6517 110.05C28.5336 108.358 25.3903 109.172 24.3231 111.664C23.6468 113.243 24.0386 115.037 25.3094 116.194C32.3856 122.631 40.0045 128.139 47.77 133.578C51.3114 136.058 56.3488 134.067 57.0432 129.799C58.5218 120.75 60.4235 111.765 60.943 102.57C60.9759 101.985 60.9853 101.398 60.9853 100.808ZM51.7477 96.7906C51.8861 95.3838 51.1573 94.0594 49.8928 93.4276C47.7161 92.34 45.099 93.7682 44.7791 96.1803C44.6285 97.3161 44.4615 98.4439 44.2759 99.5718C43.6452 103.405 39.3763 105.192 36.2557 102.878C35.4282 102.264 34.6108 101.642 33.7951 101.015C31.8279 99.5043 28.9384 100.509 28.1631 102.865C27.7051 104.257 28.1679 105.667 29.2925 106.606C30.853 107.909 32.4317 109.177 34.0339 110.415C40.5289 115.433 49.7612 111.697 50.9269 103.573C51.2514 101.312 51.5251 99.0541 51.7477 96.7906ZM43.2581 94.1956C43.5077 91.7846 42.4041 89.5426 40.2586 88.4146C37.0193 86.7116 32.8713 88.2454 31.7284 91.7221C31.6902 91.8381 31.6521 91.954 31.614 92.0699C30.8669 94.3424 31.4676 96.8654 33.3022 98.4005C34.0631 99.0372 34.8374 99.6514 35.6277 100.248C38.4088 102.349 42.4082 100.628 42.8994 97.1779C43.0408 96.1914 43.1541 95.2007 43.2581 94.1956ZM40.7274 58.3186C40.7274 57.1081 40.0364 56.0038 38.9479 55.4742C38.4432 55.2287 37.9439 54.9859 37.4483 54.7448C36.0405 54.06 34.383 55.0852 34.383 56.6507C34.383 57.4894 34.3947 58.3076 34.437 59.1241C34.4699 59.7537 34.7497 60.6834 35.1916 60.9204C35.7268 61.2068 36.2582 61.5174 36.8066 61.8091C38.8089 62.8744 40.7274 61.1315 40.7274 58.8635C40.7274 58.682 40.7274 58.5004 40.7274 58.3186ZM42.6102 61.7674C42.6102 62.166 42.5981 62.5615 42.5589 62.9536C42.3964 64.5819 40.5959 65.1859 39.0596 64.6223C38.2427 64.3225 37.4299 64.0243 36.61 63.7235C35.6532 63.3724 34.7434 64.0514 34.5452 65.0512C34.4699 65.4233 34.4347 65.7681 34.4347 66.089C34.4347 67.875 35.5395 68.9082 37.2813 69.6239C37.5921 69.7514 37.9024 69.8799 38.2127 70.0092C42.6226 71.8475 47.4925 68.6854 47.4925 63.9078C47.4925 63.0397 47.4925 62.1749 47.4925 61.3106C47.4925 60.201 46.8252 59.2003 45.8008 58.7741C45.4945 58.6466 45.194 58.5216 44.897 58.398C43.7965 57.9402 42.5773 58.5958 42.5773 59.7876C42.5773 60.1212 42.5844 60.4531 42.5938 60.7832C42.6008 61.1131 42.6102 61.4411 42.6102 61.7674ZM56.631 84.075C56.6773 85.8194 54.9208 87.2678 53.3339 86.542C47.7299 83.9783 42.1495 81.3606 36.5503 78.7845C35.6214 78.3557 34.5922 79.2258 34.5922 80.2489C34.5922 80.762 34.5922 81.2629 34.5922 81.7625C34.5922 82.7717 35.1612 83.6936 36.0579 84.1567C41.5557 86.9967 46.9276 90.1041 52.5908 92.575C57.2623 94.6132 62.1935 91.23 62.1935 86.1332C62.1935 79.8851 61.6435 73.7326 61.0417 67.6188C60.8822 65.9981 59.8724 64.521 58.3361 63.9809C57.2371 63.593 56.111 64.5161 56.1421 65.6811C56.3052 71.8035 56.4644 77.81 56.631 84.075ZM49.4976 67.5988C49.4976 68.1939 49.4895 68.7897 49.4727 69.3874C49.3716 72.9913 45.6145 75.1111 42.2935 73.7077C40.9201 73.1273 39.5538 72.5498 38.1737 71.9665C36.4964 71.2576 34.6392 72.4207 34.6392 74.2417C34.6392 75.2317 35.2134 76.1999 36.1112 76.617C41.3161 79.0353 46.5959 81.4875 52.0616 84.0265C53.3114 84.6071 54.8242 83.7373 54.8242 82.3592C54.8242 82.2613 54.8242 82.1642 54.8219 82.0673C54.655 76.4334 54.3447 70.8003 54.3353 65.1666C54.3329 62.8606 53.6301 61.5568 51.4722 61.0927C50.3355 60.8489 49.2582 61.6655 49.3347 62.8256C49.4403 64.4258 49.4976 66.0096 49.4976 67.5988ZM52.2855 53.6832C52.2855 54.1915 51.7841 54.5223 51.2983 54.3724C47.3608 53.1578 43.8631 51.1608 40.1023 49.6663C39.4374 49.4021 38.7372 49.4956 38.1921 49.959C37.1293 50.8625 37.2506 52.594 38.4901 53.2339C41.2972 54.6828 44.1139 56.0027 46.9439 57.2504C52.8066 59.8351 57.9203 55.1792 55.4523 49.2664C53.9249 45.607 52.3044 42.066 51.0678 39.7854C50.4278 38.6049 48.8982 38.6463 48.1209 39.7413C47.7075 40.3236 47.6426 41.0472 47.9196 41.7054C48.7643 43.7127 49.5915 45.5877 50.2804 47.516C50.9691 49.4516 52.2855 51.2222 52.2855 53.6832ZM45.3304 50.0573C47.3526 51.0023 49.0218 49.0035 48.1685 46.9409C48.0798 46.7266 47.9914 46.5128 47.9031 46.2995C47.2353 44.6855 45.1465 44.2651 43.9151 45.5039C42.6647 46.7616 43.0864 48.9787 44.6836 49.7495C44.8987 49.8533 45.114 49.9562 45.3304 50.0573ZM56.5479 42.1512C58.7194 42.1512 60.5587 40.1159 59.7282 38.1095C58.8853 36.0732 57.5183 35.7901 53.9451 35.6092C52.7113 35.5465 51.8206 36.7549 52.3401 37.8758C52.7372 38.7324 53.1134 39.5436 53.4781 40.3298C53.9936 41.4407 55.1071 42.1512 56.3317 42.1512C56.404 42.1512 56.476 42.1512 56.5479 42.1512ZM61.8819 21.5872C65.1968 24.8902 62.6531 29.6887 57.9735 29.6887C55.7343 29.6887 53.142 30.6928 52.8717 32.9156C52.8573 33.0339 52.8497 33.156 52.8497 33.2827C52.8497 33.6507 53.1765 33.9152 53.5445 33.9152C56.7583 33.9152 59.9644 33.9152 63.2067 33.9152C69.3522 33.9152 72.6198 26.5393 68.2865 22.1816C66.3405 20.2246 64.3527 18.3251 62.2708 16.492C61.1818 15.5332 59.4398 16.3032 59.1171 17.7178C58.9793 18.322 59.1799 18.7634 59.5972 19.2215C60.3414 20.0384 61.1084 20.8166 61.8819 21.5872ZM62.9199 43.5314C62.9199 43.7658 62.7296 43.9527 62.4954 43.9638C61.319 44.0197 60.1657 44.0744 58.9949 44.1299C57.2345 44.2134 56.0328 45.8933 56.6695 47.5367C57.0546 48.5306 58.0512 49.2891 59.117 49.2891C60.0027 49.2891 60.8841 49.2891 61.765 49.2891C66.3564 49.2891 69.464 44.6326 67.7232 40.3841C67.3566 39.4895 66.9929 38.5974 66.6315 37.7044C66.0744 36.33 65.2117 35.6204 63.7167 35.8124C62.164 36.0114 61.111 37.366 61.7073 38.8134C62.3171 40.2935 62.9199 41.7646 62.9199 43.5314ZM59.6209 27.9562C61.8648 27.9562 62.9781 25.2039 61.3856 23.623C60.1063 22.353 57.9856 22.8275 57.3192 24.5025C56.6626 26.153 57.8445 27.9562 59.6209 27.9562ZM71.08 43.827C72.4795 47.3855 69.7845 51.1146 65.9607 51.1146C64.2954 51.1146 62.6572 51.1146 61.0111 51.1146C59.6124 51.1146 58.6667 52.4598 59.0342 53.8093C59.5138 55.5707 60.4493 56.3259 62.3721 56.3376C68.0936 56.3723 73.8104 56.6837 79.5295 56.8628C80.7381 56.9007 81.5127 55.5562 81.0747 54.4292C78.744 48.4326 76.3732 42.7035 73.6284 37.2855C73.2209 36.4811 72.3713 35.9813 71.4696 35.9813C69.7353 35.9813 68.5863 37.7493 69.2556 39.3492C69.874 40.8274 70.483 42.3088 71.08 43.827ZM79.9315 110.774C79.9315 113.658 78.5211 115.865 76.4478 117.55C74.0556 119.496 71.7334 120.122 69.2728 119.342C65.5742 118.17 60.8303 119.217 59.9792 123.002C59.8405 123.611 59.7747 124.191 59.7747 124.745C59.7747 126.535 60.4681 128.052 61.7116 129.37C64.8826 132.732 68.6249 134.887 73.3591 134.605C74.4263 134.542 75.5005 134.608 76.5724 134.579C80.3076 134.478 83.7043 133.258 86.3488 130.532C90.4436 126.309 92.9024 121.462 92.9024 115.827C92.9024 114.306 92.7237 112.726 92.3476 111.086C91.7435 108.441 90.5329 105.908 87.9684 105.042C87.213 104.787 86.4492 104.56 85.6741 104.351C82.5329 103.503 79.9315 107.52 79.9315 110.774ZM67.7836 16.5988C69.7623 15.744 70.2922 13.1783 68.8084 11.6149C68.7105 11.5118 68.6126 11.4086 68.5146 11.3053C67.6563 10.401 66.498 10.0378 65.3294 10.4723C63.1695 11.2755 62.4441 14.1236 64.1174 15.7079C64.2209 15.8059 64.3243 15.9038 64.4277 16.0017C65.3283 16.8544 66.6451 17.0906 67.7836 16.5988ZM84.1533 57.394C84.1533 58.3543 83.0555 58.793 82.0956 58.7672C76.3893 58.6139 70.5437 58.4569 64.5105 58.2948C62.7512 58.2476 61.5473 60.1115 62.1673 61.7586C62.5 62.6425 63.264 63.1473 64.2038 63.2397C69.0458 63.7162 73.8443 64.2033 78.6478 64.4076C85.9158 64.7166 90.6625 57.6996 87.7044 51.0536C85.6155 46.3604 83.2676 41.8239 81.0109 37.2083C80.5669 36.3002 79.6242 35.7422 78.6148 35.7969C78.1821 35.8203 77.76 35.8432 77.3384 35.8661C76.2802 35.9235 75.5416 37.0088 75.9613 37.9818C78.4553 43.7871 80.9822 49.5775 83.434 55.4028C83.6878 56.0065 84.1533 56.6251 84.1533 57.394ZM78.2038 110.896C78.2038 110.472 78.1732 110.022 78.1215 109.54C77.9476 107.929 77.0684 106.304 76.2034 104.888C74.8318 102.644 72.9527 101.453 70.8635 100.604C67.1311 99.0867 62.7283 102.27 62.4145 106.286C62.3862 106.626 62.3745 106.959 62.3745 107.287C62.3745 110.762 63.8437 113.57 66.2954 115.947C68.4603 118.044 71.0766 118.415 73.5166 117.042C77.1671 114.987 78.2038 113.394 78.2038 110.896ZM65.1051 76.915C70.695 78.8906 75.5183 73.5098 74.2406 67.7203C73.9162 66.2515 73.0488 65.6939 71.7959 65.6068C66.9706 65.2723 62.8329 69.3269 63.2652 74.1445C63.2825 74.3368 63.3005 74.529 63.3195 74.721C63.3923 75.4643 64.0599 76.5375 64.6875 76.7655C64.8265 76.8159 64.9657 76.8658 65.1051 76.915ZM77.6862 74.4365C78.5196 78.224 75.0586 81.3009 71.2819 80.42C70.3657 80.2063 69.4541 79.9937 68.5425 79.781C66.1189 79.2157 63.8537 81.1994 64.0787 83.6779C64.2107 85.1319 65.1938 86.3602 66.5892 86.79C73.5203 88.9246 80.5279 90.5302 87.6841 91.6155C87.8761 91.6447 88.0506 91.5004 88.0506 91.3063C88.0506 87.3712 85.4613 74.8618 83.5038 68.7167C83.1 67.4489 82.0379 66.6105 80.7137 66.4805C78.2851 66.2421 76.2687 68.4303 76.8397 70.8027C77.1303 72.0102 77.4178 73.217 77.6862 74.4365ZM89.8596 90.0459C90.093 91.9057 88.5096 93.73 86.6802 93.3216C80.3194 91.9041 73.9679 90.429 67.6165 88.9612C65.6821 88.5135 63.8201 89.925 63.8201 91.9105C63.8201 92.4007 63.8201 92.8869 63.8201 93.3734C63.8201 95.0901 64.8684 96.639 66.4827 97.2229C72.315 99.3326 78.2773 100.923 84.3298 102.326C92.7938 104.289 100.555 96.6161 98.7496 88.1171C97.3645 81.5957 95.8074 75.1993 93.7091 68.9999C93.1688 67.4035 91.5891 66.3547 89.9037 66.3547C87.2834 66.3547 85.435 68.8192 86.0726 71.3607C87.6268 77.5558 89.0577 83.6576 89.8596 90.0459ZM72.2618 12.2785C73.5745 13.8037 73.0858 16.1587 71.2747 17.0358C70.8824 17.2257 70.4959 17.4129 70.1115 17.5991C68.8639 18.2032 68.6406 19.7515 69.4476 20.8785C70.4701 22.3131 71.6478 22.5548 73.2322 21.8571C73.9047 21.561 74.579 21.2693 75.2575 20.9796C79.5877 19.1306 80.7309 13.5368 77.4116 10.1973C76.7434 9.52502 76.0813 8.85897 75.4235 8.19723C74.6829 7.45224 73.4344 7.29729 72.4745 7.72387C70.9231 8.41327 70.6006 10.3483 71.7081 11.6351C71.891 11.8476 72.0754 12.0618 72.2618 12.2785ZM82.5114 12.7973C84.8525 15.2817 84.0736 19.1996 80.9562 20.5905C79.4899 21.2447 78.0168 21.8577 76.5296 22.4662C74.771 23.1857 74.2926 25.4154 75.7115 26.6792C76.439 27.3272 77.5526 27.5833 78.458 27.2235C79.8564 26.6677 81.2821 26.1011 82.7335 25.5243C89.4706 22.8467 91.2291 14.1257 86.0562 9.04648C84.7416 7.7557 83.4357 6.47352 82.1328 5.19433C81.3832 4.45838 80.1867 4.29345 79.2316 4.73071C77.6292 5.46423 77.3202 7.53199 78.5682 8.77618C79.9099 10.1137 81.2271 11.4344 82.5114 12.7973ZM91.9645 12.2636C96.0231 16.3854 94.5218 22.7369 89.1563 24.8988C86.1744 26.1002 83.2206 27.2904 80.2481 28.488C79.0747 28.9608 78.693 30.4536 79.5248 31.4066C80.59 32.6261 82.3043 33.0436 83.8359 32.5185C88.3273 30.9788 92.8368 29.5715 97.2376 27.8917C103.794 25.3889 105.247 17.5303 100.271 12.5814C96.3164 8.64878 91.9336 4.6997 88.4316 2.00216C87.7043 1.44189 86.8319 1.30711 86.0068 1.70966C84.4557 2.46633 84.0281 4.58592 85.2858 5.76755C87.4551 7.80549 89.5246 9.74123 91.4944 11.7814C91.6501 11.9429 91.8069 12.1035 91.9645 12.2636ZM91.3426 44.7576C95.7164 44.0545 97.9224 39.001 95.3742 35.3773C95.3128 35.2901 95.2515 35.2029 95.1903 35.1157C93.6556 32.9332 90.8769 32.0281 88.358 32.908C84.9892 34.0848 83.3808 37.9421 84.9378 41.153C84.9848 41.25 85.0318 41.347 85.0788 41.4439C86.2328 43.8236 88.7313 45.1774 91.3426 44.7576ZM99.1337 37.5702C101.388 40.8704 99.3366 45.2259 95.4009 45.9217C94.4751 46.0853 93.5548 46.248 92.6352 46.4106C90.2675 46.8292 88.9387 49.3754 89.9536 51.5551C90.6074 52.9595 92.0763 53.8074 93.6159 53.6363C95.8371 53.3894 98.051 53.0948 100.266 52.7477C108.068 51.525 111.685 42.7515 107.131 36.2998C105.723 34.3052 104.277 32.3501 102.783 30.4249C101.85 29.222 100.308 28.753 98.8781 29.2766C96.649 30.0929 95.7769 32.8455 97.1653 34.771C97.8336 35.6979 98.4895 36.6271 99.1337 37.5702ZM117.596 50.0316C117.596 50.7447 116.907 51.1056 115.429 51.4323C110.396 52.5433 105.342 53.5685 100.279 54.5248C99.0486 54.7571 97.8114 54.9495 96.5482 55.1307C93.9457 55.5039 92.3364 58.1205 93.2386 60.59C93.8495 62.2622 95.4723 63.3978 97.2499 63.2989C103.719 62.939 110.051 61.9772 116.374 60.8138C124.736 59.2753 128.876 49.574 124.095 42.5429C121.555 38.8067 118.966 35.1532 116.266 31.5811C114.942 29.8308 113.54 28.1453 112.133 26.4567C110.934 25.0177 108.911 24.5632 107.217 25.3638C106.9 25.514 106.585 25.6629 106.27 25.8114C104.498 26.6493 103.913 28.8633 105.004 30.4923C108.948 36.3759 112.946 42.221 116.794 48.1714C117.321 48.9867 117.596 49.5797 117.596 50.0316ZM113.598 73.2408C113.598 72.1832 113.311 71.1181 112.669 70.0615C110.941 67.2144 108.358 65.2213 105.145 64.9245C104.522 64.867 103.897 64.8315 103.268 64.8125C98.7871 64.6772 95.6323 69.3175 96.9761 73.5946C97.096 73.9758 97.2158 74.3655 97.4039 74.7125C97.7377 75.3279 98.0762 75.9485 98.4899 76.5061C100.14 78.7328 102.253 80.4353 104.888 80.9656C108.299 81.6525 110.057 80.7706 112.204 77.4353C113.078 76.0766 113.598 74.6654 113.598 73.2408ZM115.33 73.5468C115.33 75.5973 114.592 77.5239 113.29 79.2874C111.973 81.0708 110.307 82.3635 108.236 82.7798C104.699 83.491 100.226 86.2432 100.836 89.7994C101.257 92.2584 102.592 93.8368 104.611 94.7938C108.647 96.706 112.801 97.2031 117.02 95.3526C118.184 94.8421 119.319 94.2545 120.497 93.7809C123.541 92.5554 125.92 90.3143 127.349 87.4707C129.07 84.0442 129.993 80.5895 129.993 77.1581C129.993 73.4765 128.931 69.8221 126.648 66.2632C125.109 63.8618 123 61.741 119.996 62.0158C119.29 62.0803 118.586 62.1656 117.879 62.2666C114.444 62.7574 113.808 67.4286 114.874 70.731C115.182 71.692 115.33 72.6317 115.33 73.5468ZM132.386 24.7907C132.386 22.1604 131.1 20.1655 128.566 18.9731C125.927 17.7307 123.082 17.2412 120.381 18.2824C119.444 18.6441 118.524 19.0569 117.608 19.5019C114.354 21.0813 113.736 25.2819 115.871 28.2012C117.528 30.4725 119.627 31.8852 122.234 32.7029C127.692 34.4137 131.312 32.1328 132.262 26.2639C132.344 25.7529 132.386 25.2617 132.386 24.7907ZM134.356 25.0926C134.356 25.3398 134.347 25.5911 134.328 25.8459C134.133 28.3837 133.416 30.7683 131.495 32.6148C128.462 35.5292 124.715 40.4821 127.151 43.912C127.215 44.0027 127.28 44.0933 127.344 44.1839C127.718 44.709 128.437 45.0148 129.048 45.3047C130.985 46.2229 133.014 46.1324 135.059 45.791C139.309 45.0811 142.419 42.6194 145.324 39.3964C148.373 36.0152 150.162 32.2854 150.162 27.8922C150.162 27.3717 150.138 26.8422 150.087 26.3027C149.873 24.0448 148.947 21.8588 148.335 19.6422C147.198 15.5061 144.509 12.6533 141.067 10.5411C138.855 9.1821 136.328 8.12079 133.862 9.49037C130.224 11.5124 131.928 17.9529 133.656 21.7397C134.12 22.7563 134.356 23.8788 134.356 25.0926Z" fill="#019348"/>
<path d="M0.863684 58.1071C0.389611 58.1153 -2.52348e-06 57.7306 -2.50276e-06 57.2565C-2.48206e-06 56.7829 0.385074 56.4054 0.856025 56.3562C1.27092 56.3127 1.6859 56.2339 2.10207 56.1085C2.89388 55.8701 3.31958 55.0575 3.26567 54.2324C3.09435 51.6102 2.83399 49.0755 1.67373 46.7494C1.48167 46.3648 1.13207 45.9368 0.750994 45.6279C0.359359 45.3103 -1.96102e-06 44.8629 -1.93898e-06 44.3587C-1.91203e-06 43.742 0.53065 43.2316 1.10031 43.4677C2.16054 43.9072 2.88995 44.8914 3.29575 46.03C3.96104 47.903 4.33477 49.9016 4.70393 51.8718C4.82418 52.5072 4.89431 53.1526 4.95082 53.8265C5.05552 55.0751 6.32848 55.9022 7.54304 55.5944C8.54465 55.3406 9.11025 54.4011 9.0024 53.3735C8.90051 52.4027 8.8082 51.5698 8.60849 50.7654C7.7411 47.2577 6.98646 43.6906 5.75708 40.3165C5.72031 40.2157 5.68161 40.1163 5.64102 40.0182C4.06919 36.2228 -1.43116e-06 32.7412 -1.25159e-06 28.6331L-9.0792e-07 20.7708C-8.9481e-07 20.4709 0.276203 20.2075 0.533605 20.3615C1.33755 20.8414 1.75371 21.6007 1.75371 22.5024C1.75371 22.736 1.72552 22.9794 1.66904 23.2298C1.44811 24.2135 0.984933 25.1678 0.92387 26.1545C0.832225 27.6402 0.648848 29.1708 0.648848 30.6567C0.648848 31.5816 0.719371 32.4891 0.928552 33.3576C1.19421 34.4645 3.32403 35.093 4.62166 35.9162C4.89334 36.0878 5.14774 35.5628 5.12089 35.2426C5.10302 35.0294 5.07622 34.8228 5.00714 34.6326C4.76975 33.9753 4.42889 33.3598 4.16326 32.7112C3.82945 31.8868 3.40631 31.0726 3.23938 30.2083C3.19704 29.996 3.17821 29.7929 3.17821 29.5999C3.17821 28.5191 3.80357 27.7545 4.84726 27.4393C6.1379 27.0488 7.25452 27.4667 7.67295 28.836C7.86572 29.4606 7.95027 30.1526 7.95027 30.8397C7.95027 31.2576 7.91741 31.6737 7.86092 32.0718C7.7928 32.5314 7.72695 32.97 7.72695 33.3888C7.72695 34.5126 9.08747 34.5095 9.81738 33.6551C10.0419 33.3923 10.2672 33.1377 10.501 32.8913C10.9687 32.3953 11.1991 31.9076 11.1991 31.3653C11.1991 30.9978 11.0932 30.6054 10.8841 30.169C9.63815 27.5651 9.09049 24.5843 6.94422 22.4681C6.67858 22.207 6.46231 21.7926 6.40824 21.4197C6.34947 21.0351 6.2883 20.6366 6.2883 20.2582C6.2883 19.5486 6.50465 18.9101 7.36258 18.5697C8.632 18.0671 9.44769 18.911 9.86387 19.972C10.2188 20.879 10.1154 21.9741 10.4303 22.9071C10.8354 24.1041 11.2652 25.292 11.7035 26.4769C12.6295 28.9799 14.8103 30.8378 17.4427 31.2774C17.8984 31.353 17.9075 30.5117 17.5776 30.1883C16.9429 29.5661 16.3325 28.9748 15.7643 28.3419C15.1154 27.6191 14.3985 26.8902 13.9988 26.0215C13.8484 25.7005 13.7802 25.3931 13.7802 25.1006C13.7802 24.3517 14.2316 23.7 14.958 23.1634C16.0393 22.3657 17.0408 22.52 17.8 23.4765C18.3948 24.2258 18.7521 25.1954 19.14 26.1019C19.2702 26.4048 19.3934 26.7108 19.5174 27.0316C19.8861 27.9856 21.1036 27.9214 21.5707 27.0114C21.8857 26.4037 22.0338 25.8586 22.0338 25.351C22.0338 24.4261 21.5401 23.6256 20.6609 22.7991C18.7168 20.9721 17.0055 18.8929 14.5372 17.7317C13.6509 17.3151 13.2795 16.5106 13.2795 15.6081C13.2795 15.3747 13.3053 15.1347 13.3524 14.8931C13.43 14.4887 13.886 13.9543 14.2598 13.8603C15.3717 13.5801 16.4013 13.8574 17.0501 14.9552C17.5085 15.7298 17.7906 16.6574 18.3713 17.3071C19.1201 18.1472 19.8898 18.9674 20.6675 19.7798C22.5124 21.707 25.2817 22.4915 27.8472 21.7595C28.2677 21.6414 27.8634 20.9086 27.4572 20.7479C26.7156 20.4545 25.9927 20.1703 25.2778 19.8642C24.4833 19.5233 23.6229 19.256 22.9412 18.7418C22.2735 18.2397 21.834 17.6335 21.834 16.9118C21.834 16.5158 21.9679 16.0849 22.2665 15.6177C23.1034 14.3213 24.18 13.8936 25.5058 14.6689C26.2346 15.095 26.7847 15.8572 27.4076 16.4756C27.6633 16.7292 27.9183 16.9837 28.1876 17.2535C28.857 17.9239 29.89 17.3983 29.89 16.4509C29.89 16.3407 29.8947 16.2329 29.9041 16.1255C29.9159 15.9648 29.9229 15.8111 29.9229 15.6633C29.9229 14.1594 29.2318 13.3089 27.6779 12.8176C25.1908 12.0308 22.9435 10.5322 20.1813 10.5511C18.9895 10.5591 17.9434 9.67138 17.7883 8.29134C17.786 8.26786 17.7836 8.24325 17.7836 8.21747C17.7836 7.72991 18.2444 6.87697 18.5358 6.84842C19.5326 6.75058 20.5575 6.97097 21.573 7.08237C21.653 7.09144 21.7329 7.19358 21.8011 7.26639C23.5429 9.18028 25.9783 9.75375 28.141 10.8716C29.8571 11.7589 31.2135 11.862 32.4406 10.1177C33.0102 9.30869 32.6709 8.24007 31.6815 8.23235C31.3591 8.22983 31.0544 8.22257 30.7504 8.20696C29.7067 8.15323 28.5947 8.21175 27.6427 7.85314C26.74 7.5137 26.2839 6.75305 26.2839 5.87597C26.2839 5.53903 26.3521 5.18481 26.4861 4.83067C26.9257 3.68003 27.7461 2.98438 28.9826 3.27081C29.8171 3.46382 30.607 3.87121 31.411 4.19879C32.6773 4.71532 33.8796 3.44199 33.3469 2.18242C33.3065 2.08694 33.2669 1.99156 33.2281 1.89585C32.8238 0.89514 32.1185 0.595901 31.15 0.613275C28.5313 0.660425 25.8867 0.343529 23.3596 1.42241C22.8354 1.64682 22.2125 1.792 21.6553 1.73845C20.068 1.58527 20.9033 9.13712e-07 22.498 9.83417e-07L29.6807 1.29738e-06C32.3947 1.41602e-06 34.8506 2.24858 36.7025 4.23259C38.0401 5.66968 40.0783 6.65609 41.973 7.22735C44.8341 8.09077 47.7807 8.65388 50.9403 9.31281C52.1477 9.5646 53.3422 8.70269 53.5511 7.48718C53.7656 6.23952 52.8527 5.16459 51.5895 5.08061C50.8402 5.03078 50.1496 4.96563 49.4743 4.8241C47.6759 4.44706 45.8635 3.99529 44.1639 3.29573C43.0892 2.85383 42.178 2.06003 41.8047 0.935299C41.6415 0.443415 42.0656 1.83875e-06 42.5839 1.8614e-06C43.0752 1.88288e-06 43.4635 0.425684 43.7549 0.821277C44.127 1.32645 44.8033 1.66544 45.4357 1.93336C47.5871 2.84658 49.8181 3.20766 52.0553 3.33432C52.9261 3.38362 53.7388 2.85246 53.9596 2.00871C54.061 1.62095 54.1359 1.24109 54.1844 0.860036C54.2449 0.384159 54.6318 2.38803e-06 55.1115 2.409e-06C55.6013 2.43041e-06 55.9981 0.401568 55.988 0.891263C55.3549 31.644 32.023 57.5655 0.863684 58.1071ZM27.2885 48.5095C28.2436 47.8547 28.6747 46.4302 28.0343 45.4655C25.94 42.3111 24.0018 39.3615 21.9844 36.4728C21.3709 35.5951 20.4658 34.8943 19.5913 34.2656C15.1084 31.0399 9.88268 33.5108 9.25495 39.1251C9.21969 39.443 9.18682 39.7692 9.18682 40.0912C9.18682 40.2762 9.19858 40.4595 9.22446 40.6391C9.81215 44.7186 10.4092 48.7976 11.0628 52.8661C11.0871 53.0168 11.1284 53.1646 11.1817 53.3123C11.5157 54.2375 12.7393 54.6402 13.6923 54.3968C14.7442 54.1281 15.2633 53.1068 15.0153 52.0499C14.4605 49.6859 13.9025 47.4468 13.5639 45.1726C13.5098 44.8087 13.4817 44.4469 13.4817 44.0908C13.4817 42.4265 14.1117 40.8956 15.7455 39.9698C17.1912 39.1505 19.14 39.8953 20.8255 41.8714C21.5965 42.7757 22.33 43.7404 22.9247 44.7748C23.446 45.6805 23.92 46.6151 24.4048 47.5913C24.9729 48.7354 26.2349 49.2318 27.2885 48.5095ZM20.5042 52.1338C22.4581 51.3004 23.1123 48.835 22.1609 46.9358C21.6884 45.9925 21.157 45.1008 20.5245 44.2841C18.8166 42.079 15.3246 42.8585 15.3246 45.6476C15.3246 46.9348 15.625 48.3561 16.2179 49.9419C16.8925 51.7465 18.7321 52.8897 20.5042 52.1338ZM43.2541 33.6468C43.8562 32.6508 43.599 31.2919 42.625 30.6549C39.4747 28.5948 36.5089 26.6369 33.4961 24.7648C32.6052 24.212 31.5144 23.907 30.4777 23.7281C25.9666 22.9493 22.7578 25.6658 22.7578 30.0099C22.7578 30.482 22.7954 30.9734 22.8754 31.4814C23.0987 32.9439 23.5876 34.4574 24.3163 35.7219C26.0583 38.7453 28 41.6451 29.9041 44.5661C29.9256 44.5993 29.9482 44.6317 29.9718 44.6634C30.567 45.4638 31.8062 45.4066 32.6171 44.8258C33.6345 44.0969 33.7381 42.6976 32.9539 41.7222C32.8515 41.5949 32.7539 41.4655 32.6616 41.3321C31.4815 39.6191 30.2309 37.9297 29.2741 36.0824C28.7029 34.9793 28.4302 33.9335 28.4302 33.0162C28.4302 31.9672 28.7875 31.086 29.4669 30.4788C31.1054 29.0144 32.9531 29.3343 34.6221 30.3224C36.4628 31.4113 38.1765 32.7369 39.9113 34.0095C39.9364 34.0279 39.9614 34.0465 39.9862 34.0653C41.0722 34.8868 42.5497 34.8121 43.2541 33.6468ZM38.13 39.8039C39.5172 38.3844 39.4822 35.9319 37.9872 34.6263C37.1429 33.889 36.3025 33.2011 35.393 32.668C32.7104 31.0955 30.1194 34.1925 31.6176 36.9172C32.148 37.8817 32.7968 38.7739 33.5202 39.6403C34.7188 41.0758 36.823 41.1414 38.13 39.8039ZM52.3664 14.009C52.5857 12.9441 51.9876 11.774 50.946 11.4625C46.4751 10.1256 42.1436 9.18466 37.6499 9.60733C33.8769 9.9625 31.6319 12.5502 31.6319 15.7706C31.6319 16.9721 31.9446 18.2621 32.6075 19.5567C32.9225 20.1719 33.3386 20.7487 33.7899 21.2681C36.597 24.5096 40.09 26.7332 43.8642 29.0057C44.8371 29.5915 46.1579 29.1985 46.7633 28.2377C47.4189 27.1972 46.9562 25.9576 45.8612 25.3977C45.5088 25.2175 45.1757 25.0278 44.8621 24.8076C43.0214 23.511 41.0256 22.3215 39.5164 20.6706C38.5949 19.6633 38.1647 18.6014 38.1647 17.6274C38.1647 15.9195 39.4882 14.4823 41.8061 14.0865C42.7417 13.9266 43.7666 13.9894 44.6975 14.2015C46.3747 14.5839 48.0364 15.0381 49.7694 15.5116C50.9447 15.8328 52.1206 15.2023 52.3664 14.009ZM50.8166 18.2935C50.8166 18.1556 50.7358 18.0299 50.6124 17.9681C48.1922 16.7566 46.2274 16.0649 44.578 15.8965C41.4332 15.5753 40.5439 19.7019 43.0498 21.629C45.8768 23.803 50.5001 22.4397 50.7923 18.8854C50.8083 18.691 50.8166 18.4938 50.8166 18.2935Z" fill="#019348"/>
</svg>
