<svg width="35" height="34" viewBox="0 0 35 34" fill="none" xmlns="http://www.w3.org/2000/svg">
<path d="M13.25 24.4375C12.6632 24.4375 12.1875 24.9132 12.1875 25.5C12.1875 26.0868 12.6632 26.5625 13.25 26.5625H21.7499C22.3369 26.5625 22.8124 26.0868 22.8124 25.5C22.8124 24.9132 22.3369 24.4375 21.7499 24.4375H13.25Z" fill="white"/>
<path fill-rule="evenodd" clip-rule="evenodd" d="M17.4997 1.77075C16.4991 1.77075 15.8636 2.47818 15.4362 3.11259C15.0024 3.75645 14.5497 4.68411 14.0131 5.78393L10.8074 12.3527C10.4972 12.9885 10.2975 13.3948 10.1243 13.6767C10.0041 13.8724 9.93845 13.9353 9.92307 13.9487C9.8788 13.9693 9.83751 13.9759 9.79948 13.9732C9.77491 13.9595 9.70608 13.9161 9.5795 13.799C9.34988 13.5867 9.064 13.2633 8.61062 12.7472L8.5694 12.7003C7.7581 11.7767 7.09537 11.0222 6.54952 10.5119C6.26963 10.2502 5.97544 10.0091 5.66624 9.83626C5.35184 9.66051 4.95704 9.51928 4.50657 9.55885C3.83639 9.61771 3.24171 9.95665 2.82477 10.4604C2.32176 11.0681 2.26515 11.9178 2.27087 12.6522C2.27703 13.4456 2.37616 14.4987 2.49931 15.8071L2.83554 19.3796C3.09761 22.1644 3.30287 24.3453 3.65843 26.0397C4.02065 27.7659 4.56521 29.1317 5.60508 30.1955C6.66058 31.2752 7.95751 31.7692 9.56029 32.0037C11.102 32.2291 13.0495 32.2291 15.4889 32.2291H19.5105C21.95 32.2291 23.8973 32.2291 25.4391 32.0037C27.0419 31.7692 28.3389 31.2752 29.3944 30.1955C30.4343 29.1317 30.9788 27.7659 31.3411 26.0397C31.6965 24.3453 31.9018 22.1644 32.1639 19.3796L32.5002 15.8071C32.6233 14.4987 32.7225 13.4456 32.7286 12.6522C32.7342 11.9178 32.6777 11.0681 32.1746 10.4604C31.7577 9.95665 31.163 9.61771 30.4929 9.55885C30.0424 9.51928 29.6476 9.66051 29.3332 9.83626C29.024 10.0091 28.7299 10.2502 28.4499 10.5119C27.9041 11.0222 27.2414 11.7767 26.4301 12.7003L26.3888 12.7472C25.9355 13.2633 25.6496 13.5867 25.42 13.799C25.2933 13.9161 25.2245 13.9595 25.2 13.9732C25.1618 13.9759 25.1206 13.9693 25.0764 13.9487C25.061 13.9353 24.9953 13.8724 24.8751 13.6767C24.7019 13.3948 24.5023 12.9885 24.192 12.3527L20.9864 5.78391C20.4497 4.6841 19.9971 3.75645 19.5633 3.11258C19.1359 2.47816 18.5004 1.77075 17.4997 1.77075ZM15.8861 6.79112C16.4693 5.59594 16.8579 4.80532 17.1985 4.29986C17.3427 4.08578 17.4419 3.97875 17.4997 3.9272C17.5576 3.97875 17.6568 4.08578 17.801 4.29986C18.1414 4.80532 18.5302 5.59594 19.1134 6.79111L22.3046 13.3303C22.5861 13.9072 22.8306 14.4084 23.0645 14.7892C23.304 15.1791 23.6201 15.5949 24.1121 15.8425C24.5562 16.0661 25.0565 16.1481 25.5516 16.0699C26.1088 15.9818 26.5316 15.6653 26.8626 15.3593C27.1834 15.0626 27.5427 14.6536 27.9501 14.1898L27.9853 14.1496C28.8479 13.1678 29.4413 12.494 29.901 12.0642C30.1285 11.8516 30.2781 11.7425 30.3701 11.6911L30.3714 11.6904C30.4191 11.7079 30.4746 11.7425 30.5295 11.8057C30.5295 11.8057 30.5296 11.8057 30.5295 11.8057C30.529 11.806 30.5297 11.8087 30.5316 11.8147C30.5449 11.857 30.6081 12.0579 30.6037 12.6357C30.5983 13.326 30.5088 14.2869 30.3793 15.6626L30.0546 19.1126C29.7847 21.9799 29.5892 24.0406 29.2613 25.6032C28.9371 27.1478 28.5103 28.06 27.8748 28.7101C27.255 29.3442 26.4587 29.707 25.1317 29.9011C23.7613 30.1014 21.9694 30.1041 19.4263 30.1041H15.5731C13.0301 30.1041 11.2381 30.1014 9.86779 29.9011C8.54074 29.707 7.7445 29.3442 7.12463 28.7101C6.48912 28.06 6.06224 27.1478 5.73812 25.6032C5.41023 24.0406 5.21466 21.9799 4.9448 19.1126L4.6201 15.6626C4.49063 14.2869 4.40117 13.326 4.3958 12.6357C4.39131 12.058 4.45434 11.8571 4.4676 11.8148C4.46948 11.8088 4.47036 11.806 4.46991 11.8057C4.52474 11.7425 4.58029 11.7079 4.62813 11.6904L4.62939 11.6911C4.72131 11.7425 4.87085 11.8516 5.09835 12.0642C5.55806 12.494 6.1516 13.1678 7.01411 14.1496L7.04936 14.1898C7.45676 14.6536 7.81596 15.0626 8.13685 15.3593C8.46787 15.6653 8.89066 15.9818 9.44782 16.0699C9.94297 16.1481 10.4433 16.0661 10.8873 15.8425C11.3794 15.5949 11.6953 15.1791 11.9349 14.7892C12.1688 14.4084 12.4134 13.9072 12.6948 13.3304L15.8861 6.79112ZM30.5295 11.8057C30.5322 11.8089 30.535 11.812 30.5377 11.8153C30.5343 11.8112 30.532 11.8083 30.5306 11.8068C30.5302 11.8062 30.5297 11.8059 30.5295 11.8057ZM17.5621 3.88295C17.5621 3.88361 17.5576 3.8863 17.549 3.88905C17.5579 3.88365 17.5621 3.88228 17.5621 3.88295ZM17.4504 3.88905C17.4417 3.8863 17.4373 3.88361 17.4373 3.88295C17.4372 3.88228 17.4416 3.88365 17.4504 3.88905Z" fill="white"/>
</svg>
